<svg id="mermaid-1780534482567" width="100%" xmlns="http://www.w3.org/2000/svg" xmlns:xlink="http://www.w3.org/1999/xlink" style="max-width: 1356.85546875px;" viewBox="-8 -8 1356.85546875 2383.5" role="graphics-document document" aria-roledescription="flowchart-v2"><style>#mermaid-1780534482567{font-family:"trebuchet ms",verdana,arial,sans-serif;font-size:16px;fill:#333;}#mermaid-1780534482567 .error-icon{fill:#552222;}#mermaid-1780534482567 .error-text{fill:#552222;stroke:#552222;}#mermaid-1780534482567 .edge-thickness-normal{stroke-width:2px;}#mermaid-1780534482567 .edge-thickness-thick{stroke-width:3.5px;}#mermaid-1780534482567 .edge-pattern-solid{stroke-dasharray:0;}#mermaid-1780534482567 .edge-pattern-dashed{stroke-dasharray:3;}#mermaid-1780534482567 .edge-pattern-dotted{stroke-dasharray:2;}#mermaid-1780534482567 .marker{fill:#333333;stroke:#333333;}#mermaid-1780534482567 .marker.cross{stroke:#333333;}#mermaid-1780534482567 svg{font-family:"trebuchet ms",verdana,arial,sans-serif;font-size:16px;}#mermaid-1780534482567 .label{font-family:"trebuchet ms",verdana,arial,sans-serif;color:#333;}#mermaid-1780534482567 .cluster-label text{fill:#333;}#mermaid-1780534482567 .cluster-label span,#mermaid-1780534482567 p{color:#333;}#mermaid-1780534482567 .label text,#mermaid-1780534482567 span,#mermaid-1780534482567 p{fill:#333;color:#333;}#mermaid-1780534482567 .node rect,#mermaid-1780534482567 .node circle,#mermaid-1780534482567 .node ellipse,#mermaid-1780534482567 .node polygon,#mermaid-1780534482567 .node path{fill:#ECECFF;stroke:#9370DB;stroke-width:1px;}#mermaid-1780534482567 .flowchart-label text{text-anchor:middle;}#mermaid-1780534482567 .node .katex path{fill:#000;stroke:#000;stroke-width:1px;}#mermaid-1780534482567 .node .label{text-align:center;}#mermaid-1780534482567 .node.clickable{cursor:pointer;}#mermaid-1780534482567 .arrowheadPath{fill:#333333;}#mermaid-1780534482567 .edgePath .path{stroke:#333333;stroke-width:2.0px;}#mermaid-1780534482567 .flowchart-link{stroke:#333333;fill:none;}#mermaid-1780534482567 .edgeLabel{background-color:#e8e8e8;text-align:center;}#mermaid-1780534482567 .edgeLabel rect{opacity:0.5;background-color:#e8e8e8;fill:#e8e8e8;}#mermaid-1780534482567 .labelBkg{background-color:rgba(232, 232, 232, 0.5);}#mermaid-1780534482567 .cluster rect{fill:#ffffde;stroke:#aaaa33;stroke-width:1px;}#mermaid-1780534482567 .cluster text{fill:#333;}#mermaid-1780534482567 .cluster span,#mermaid-1780534482567 p{color:#333;}#mermaid-1780534482567 div.mermaidTooltip{position:absolute;text-align:center;max-width:200px;padding:2px;font-family:"trebuchet ms",verdana,arial,sans-serif;font-size:12px;background:hsl(80, 100%, 96.2745098039%);border:1px solid #aaaa33;border-radius:2px;pointer-events:none;z-index:100;}#mermaid-1780534482567 .flowchartTitleText{text-anchor:middle;font-size:18px;fill:#333;}#mermaid-1780534482567 :root{--mermaid-font-family:"trebuchet ms",verdana,arial,sans-serif;}#mermaid-1780534482567 .plain&gt;*{fill:rgb(255, 255, 255)!important;stroke:rgb(0, 0, 0)!important;color:rgb(44, 62, 80)!important;}#mermaid-1780534482567 .plain span{fill:rgb(255, 255, 255)!important;stroke:rgb(0, 0, 0)!important;color:rgb(44, 62, 80)!important;}#mermaid-1780534482567 .plain tspan{fill:rgb(44, 62, 80)!important;}#mermaid-1780534482567 .output&gt;*{fill:rgb(254, 249, 231)!important;stroke:rgb(247, 220, 111)!important;color:rgb(26, 37, 47)!important;}#mermaid-1780534482567 .output span{fill:rgb(254, 249, 231)!important;stroke:rgb(247, 220, 111)!important;color:rgb(26, 37, 47)!important;}#mermaid-1780534482567 .output tspan{fill:rgb(26, 37, 47)!important;}</style><g><marker id="mermaid-1780534482567_flowchart-pointEnd" class="marker flowchart" viewBox="0 0 10 10" refX="6" refY="5" markerUnits="userSpaceOnUse" markerWidth="12" markerHeight="12" orient="auto"><path d="M 0 0 L 10 5 L 0 10 z" class="arrowMarkerPath" style="stroke-width: 1; stroke-dasharray: 1, 0;"></path></marker><marker id="mermaid-1780534482567_flowchart-pointStart" class="marker flowchart" viewBox="0 0 10 10" refX="4.5" refY="5" markerUnits="userSpaceOnUse" markerWidth="12" markerHeight="12" orient="auto"><path d="M 0 5 L 10 10 L 10 0 z" class="arrowMarkerPath" style="stroke-width: 1; stroke-dasharray: 1, 0;"></path></marker><marker id="mermaid-1780534482567_flowchart-circleEnd" class="marker flowchart" viewBox="0 0 10 10" refX="11" refY="5" markerUnits="userSpaceOnUse" markerWidth="11" markerHeight="11" orient="auto"><circle cx="5" cy="5" r="5" class="arrowMarkerPath" style="stroke-width: 1; stroke-dasharray: 1, 0;"></circle></marker><marker id="mermaid-1780534482567_flowchart-circleStart" class="marker flowchart" viewBox="0 0 10 10" refX="-1" refY="5" markerUnits="userSpaceOnUse" markerWidth="11" markerHeight="11" orient="auto"><circle cx="5" cy="5" r="5" class="arrowMarkerPath" style="stroke-width: 1; stroke-dasharray: 1, 0;"></circle></marker><marker id="mermaid-1780534482567_flowchart-crossEnd" class="marker cross flowchart" viewBox="0 0 11 11" refX="12" refY="5.2" markerUnits="userSpaceOnUse" markerWidth="11" markerHeight="11" orient="auto"><path d="M 1,1 l 9,9 M 10,1 l -9,9" class="arrowMarkerPath" style="stroke-width: 2; stroke-dasharray: 1, 0;"></path></marker><marker id="mermaid-1780534482567_flowchart-crossStart" class="marker cross flowchart" viewBox="0 0 11 11" refX="-1" refY="5.2" markerUnits="userSpaceOnUse" markerWidth="11" markerHeight="11" orient="auto"><path d="M 1,1 l 9,9 M 10,1 l -9,9" class="arrowMarkerPath" style="stroke-width: 2; stroke-dasharray: 1, 0;"></path></marker><g class="root"><g class="clusters"><g class="cluster default flowchart-label" id="DB"><rect style="fill:#fef5e7;stroke:#e59866;" rx="0" ry="0" x="257.376953125" y="2247" width="688.484375" height="120.5"></rect><g class="cluster-label" transform="translate(514.771484375, 2247)"><foreignObject width="173.6953125" height="18.5"><div style="color: rgb(26, 37, 47); display: inline-block; white-space: nowrap;" xmlns="http://www.w3.org/1999/xhtml"><span class="nodeLabel" style="color:#1a252f;">DATABASE MANAGEMENT</span></div></foreignObject></g></g><g class="cluster default flowchart-label" id="COMBINE"><rect style="fill:#eafaf1;stroke:#82e0aa;" rx="0" ry="0" x="153.890625" y="1909.5" width="849.544921875" height="287.5"></rect><g class="cluster-label" transform="translate(443.2255859375, 1909.5)"><foreignObject width="270.875" height="18.5"><div style="color: rgb(26, 37, 47); display: inline-block; white-space: nowrap;" xmlns="http://www.w3.org/1999/xhtml"><span class="nodeLabel" style="color:#1a252f;">AGGREGATE FILES ACROSS ALL PAPERS</span></div></foreignObject></g></g><g class="cluster default flowchart-label" id="RUNALL"><rect style="fill:#eafaf1;stroke:#82e0aa;" rx="0" ry="0" x="149.33984375" y="1637" width="744.869140625" height="222.5"></rect><g class="cluster-label" transform="translate(455.8681640625, 1637)"><foreignObject width="131.8125" height="18.5"><div style="color: rgb(26, 37, 47); display: inline-block; white-space: nowrap;" xmlns="http://www.w3.org/1999/xhtml"><span class="nodeLabel" style="color:#1a252f;">BATCH EXECUTION</span></div></foreignObject></g></g><g class="cluster default flowchart-label" id="EXTRACT"><rect style="fill:#f4ecf7;stroke:#c39bd3;" rx="0" ry="0" x="320.2265625" y="538.5" width="531.986328125" height="433"></rect><g class="cluster-label" transform="translate(448.9150390625, 538.5)"><foreignObject width="274.609375" height="18.5"><div style="color: rgb(26, 37, 47); display: inline-block; white-space: nowrap;" xmlns="http://www.w3.org/1999/xhtml"><span class="nodeLabel" style="color:#1a252f;">DATA EXTRACTION  —  Claude reads PDF</span></div></foreignObject></g></g><g class="cluster default flowchart-label" id="REVIEW"><rect style="fill:#ebf5fb;stroke:#85c1e9;" rx="0" ry="0" x="872.212890625" y="393" width="279.271484375" height="247.5"></rect><g class="cluster-label" transform="translate(927.3994140625, 393)"><foreignObject width="168.8984375" height="18.5"><div style="color: rgb(26, 37, 47); display: inline-block; white-space: nowrap;" xmlns="http://www.w3.org/1999/xhtml"><span class="nodeLabel" style="color:#1a252f;">REVIEW TRAIT MAPPING</span></div></foreignObject></g></g><g class="cluster default flowchart-label" id="SETUP"><rect style="fill:#f4ecf7;stroke:#c39bd3;" rx="0" ry="0" x="688.177734375" y="83.5" width="652.677734375" height="259.5"></rect><g class="cluster-label" transform="translate(872.3212890625, 83.5)"><foreignObject width="284.390625" height="18.5"><div style="color: rgb(26, 37, 47); display: inline-block; white-space: nowrap;" xmlns="http://www.w3.org/1999/xhtml"><span class="nodeLabel" style="color:#1a252f;">WRITE TRAIT MAPPING - once per paper</span></div></foreignObject></g></g></g><g class="edgePaths"><path d="M860.125,33.5L860.125,37.667C860.125,41.833,860.125,50.167,860.125,58.5C860.125,66.833,860.125,75.167,860.125,84.158C860.125,93.15,860.125,102.8,860.125,107.625L860.125,112.45" id="L-A1-B1-0" class="edge-thickness-normal edge-pattern-solid flowchart-link LS-A1 LE-B1" style="fill:none;" marker-end="url(#mermaid-1780534482567_flowchart-pointEnd)"></path><path d="M860.125,169.75L860.125,175.458C860.125,181.167,860.125,192.583,867.633,202.062C875.141,211.541,890.157,219.081,897.665,222.851L905.173,226.622" id="L-B1-B2-0" class="edge-thickness-normal edge-pattern-solid flowchart-link LS-B1 LE-B2" style="fill:none;" marker-end="url(#mermaid-1780534482567_flowchart-pointEnd)"></path><path d="M1136.926,179L1136.926,183.167C1136.926,187.333,1136.926,195.667,1129.418,203.604C1121.91,211.541,1106.894,219.081,1099.386,222.851L1091.878,226.622" id="L-B3-B2-0" class="edge-thickness-normal edge-pattern-solid flowchart-link LS-B3 LE-B2" style="fill:none;" marker-end="url(#mermaid-1780534482567_flowchart-pointEnd)"></path><path d="M998.525,318L998.525,322.167C998.525,326.333,998.525,334.667,998.525,343C998.525,351.333,998.525,359.667,998.525,368C998.525,376.333,998.525,384.667,998.591,392.2C998.657,399.734,998.789,406.467,998.855,409.834L998.921,413.201" id="L-B2-D1-0" class="edge-thickness-normal edge-pattern-solid flowchart-link LS-B2 LE-D1" style="fill:none;" marker-end="url(#mermaid-1780534482567_flowchart-pointEnd)"></path><path d="M1013.54,470.5L1016.643,476.125C1019.747,481.75,1025.953,493,1029.057,504.333C1032.16,515.667,1032.16,527.083,1032.16,537.617C1032.16,548.15,1032.16,557.8,1032.16,562.625L1032.16,567.45" id="L-D1-D2-0" class="edge-thickness-normal edge-pattern-solid flowchart-link LS-D1 LE-D2" style="fill:none;" marker-end="url(#mermaid-1780534482567_flowchart-pointEnd)"></path><path d="M983.263,470.5L979.718,476.125C976.174,481.75,969.086,493,965.542,504.333C961.998,515.667,961.998,527.083,924.449,538.883C886.899,550.682,811.801,562.864,774.252,568.955L736.702,575.046" id="L-D1-E1-0" class="edge-thickness-normal edge-pattern-solid flowchart-link LS-D1 LE-E1" style="fill:none;" marker-end="url(#mermaid-1780534482567_flowchart-pointEnd)"></path><path d="M558.836,612.141L540.439,616.868C522.041,621.594,485.246,631.047,466.849,641.482C448.451,651.917,448.451,663.333,448.451,673.867C448.451,684.4,448.451,694.05,448.451,698.875L448.451,703.7" id="L-E1-E2-0" class="edge-thickness-normal edge-pattern-solid flowchart-link LS-E1 LE-E2" style="fill:none;" marker-end="url(#mermaid-1780534482567_flowchart-pointEnd)"></path><path d="M659.091,616L661.563,620.083C664.035,624.167,668.979,632.333,671.452,642.125C673.924,651.917,673.924,663.333,673.924,679.083C673.924,694.833,673.924,714.917,673.924,733.458C673.924,752,673.924,769,673.924,780.783C673.924,792.567,673.924,799.133,673.924,802.417L673.924,805.7" id="L-E1-E3-0" class="edge-thickness-normal edge-pattern-solid flowchart-link LS-E1 LE-E3" style="fill:none;" marker-end="url(#mermaid-1780534482567_flowchart-pointEnd)"></path><path d="M448.451,761L448.451,765.167C448.451,769.333,448.451,777.667,422.118,786.224C395.786,794.782,343.12,803.565,316.787,807.956L290.454,812.347" id="L-E2-E2b-0" class="edge-thickness-normal edge-pattern-solid flowchart-link LS-E2 LE-E2b" style="fill:none;" marker-end="url(#mermaid-1780534482567_flowchart-pointEnd)"></path><path d="M285.227,857.457L320.714,862.548C356.202,867.638,427.177,877.819,478.352,886.86C529.527,895.902,560.902,903.804,576.59,907.755L592.277,911.706" id="L-E2b-E4-0" class="edge-thickness-normal edge-pattern-solid flowchart-link LS-E2b LE-E4" style="fill:none;" marker-end="url(#mermaid-1780534482567_flowchart-pointEnd)"></path><path d="M673.924,863L673.924,867.167C673.924,871.333,673.924,879.667,673.132,887.141C672.339,894.615,670.755,901.231,669.963,904.538L669.17,907.846" id="L-E3-E4-0" class="edge-thickness-normal edge-pattern-solid flowchart-link LS-E3 LE-E4" style="fill:none;" marker-end="url(#mermaid-1780534482567_flowchart-pointEnd)"></path><path d="M236.658,1339.5L236.658,1384.917C236.658,1430.333,236.658,1521.167,236.658,1570.75C236.658,1620.333,236.658,1628.667,281.267,1639.453C325.875,1650.24,415.092,1663.48,459.7,1670.1L504.308,1676.72" id="L-L1-R1-0" class="edge-thickness-normal edge-pattern-solid flowchart-link LS-L1 LE-R1" style="fill:none;" marker-end="url(#mermaid-1780534482567_flowchart-pointEnd)"></path><path d="M509.551,1722.958L479.746,1728.715C449.942,1734.472,390.333,1745.986,360.529,1755.026C330.725,1764.067,330.725,1770.633,330.725,1773.917L330.725,1777.2" id="L-R1-G1-0" class="edge-thickness-normal edge-pattern-solid flowchart-link LS-R1 LE-G1" style="fill:none;" marker-end="url(#mermaid-1780534482567_flowchart-pointEnd)"></path><path d="M586.226,1732.5L579.557,1736.667C572.888,1740.833,559.551,1749.167,552.882,1756.617C546.213,1764.067,546.213,1770.633,546.213,1773.917L546.213,1777.2" id="L-R1-G2-0" class="edge-thickness-normal edge-pattern-solid flowchart-link LS-R1 LE-G2" style="fill:none;" marker-end="url(#mermaid-1780534482567_flowchart-pointEnd)"></path><path d="M716.709,1732.5L725.463,1736.667C734.218,1740.833,751.727,1749.167,760.482,1756.617C769.236,1764.067,769.236,1770.633,769.236,1773.917L769.236,1777.2" id="L-R1-G3-0" class="edge-thickness-normal edge-pattern-solid flowchart-link LS-R1 LE-G3" style="fill:none;" marker-end="url(#mermaid-1780534482567_flowchart-pointEnd)"></path><path d="M330.725,1834.5L330.725,1838.667C330.725,1842.833,330.725,1851.167,330.725,1859.5C330.725,1867.833,330.725,1876.167,330.725,1884.5C330.725,1892.833,330.725,1901.167,347.209,1909.938C363.693,1918.709,396.661,1927.917,413.146,1932.522L429.63,1937.126" id="L-G1-HC-0" class="edge-thickness-normal edge-pattern-solid flowchart-link LS-G1 LE-HC" style="fill:none;" marker-end="url(#mermaid-1780534482567_flowchart-pointEnd)"></path><path d="M546.213,1834.5L546.213,1838.667C546.213,1842.833,546.213,1851.167,546.213,1859.5C546.213,1867.833,546.213,1876.167,546.213,1884.5C546.213,1892.833,546.213,1901.167,540.371,1909.028C534.529,1916.889,522.845,1924.278,517.003,1927.973L511.161,1931.667" id="L-G2-HC-0" class="edge-thickness-normal edge-pattern-solid flowchart-link LS-G2 LE-HC" style="fill:none;" marker-end="url(#mermaid-1780534482567_flowchart-pointEnd)"></path><path d="M769.236,1834.5L769.236,1838.667C769.236,1842.833,769.236,1851.167,769.236,1859.5C769.236,1867.833,769.236,1876.167,769.236,1884.5C769.236,1892.833,769.236,1901.167,729.514,1911.071C689.791,1920.975,610.347,1932.451,570.624,1938.188L530.902,1943.926" id="L-G3-HC-0" class="edge-thickness-normal edge-pattern-solid flowchart-link LS-G3 LE-HC" style="fill:none;" marker-end="url(#mermaid-1780534482567_flowchart-pointEnd)"></path><path d="M436.335,1968L425.425,1972.167C414.515,1976.333,392.694,1984.667,381.783,1992.117C370.873,1999.567,370.873,2006.133,370.873,2009.417L370.873,2012.7" id="L-HC-H0-0" class="edge-thickness-normal edge-pattern-solid flowchart-link LS-HC LE-H0" style="fill:none;" marker-end="url(#mermaid-1780534482567_flowchart-pointEnd)"></path><path d="M370.873,2088.5L370.873,2092.667C370.873,2096.833,370.873,2105.167,370.873,2112.617C370.873,2120.067,370.873,2126.633,370.873,2129.917L370.873,2133.2" id="L-H0-H1-0" class="edge-thickness-normal edge-pattern-solid flowchart-link LS-H0 LE-H1" style="fill:none;" marker-end="url(#mermaid-1780534482567_flowchart-pointEnd)"></path><path d="M524.055,1968L534.966,1972.167C545.876,1976.333,567.697,1984.667,578.607,1998.875C589.518,2013.083,589.518,2033.167,589.518,2053.25C589.518,2073.333,589.518,2093.417,589.518,2106.742C589.518,2120.067,589.518,2126.633,589.518,2129.917L589.518,2133.2" id="L-HC-H2-0" class="edge-thickness-normal edge-pattern-solid flowchart-link LS-HC LE-H2" style="fill:none;" marker-end="url(#mermaid-1780534482567_flowchart-pointEnd)"></path><path d="M525.656,1956.593L577.28,1962.661C628.904,1968.729,732.152,1980.864,783.776,1996.974C835.4,2013.083,835.4,2033.167,835.4,2053.25C835.4,2073.333,835.4,2093.417,835.4,2106.742C835.4,2120.067,835.4,2126.633,835.4,2129.917L835.4,2133.2" id="L-HC-H3-0" class="edge-thickness-normal edge-pattern-solid flowchart-link LS-HC LE-H3" style="fill:none;" marker-end="url(#mermaid-1780534482567_flowchart-pointEnd)"></path><path d="M370.873,2172L370.873,2176.167C370.873,2180.333,370.873,2188.667,370.873,2197C370.873,2205.333,370.873,2213.667,370.873,2222C370.873,2230.333,370.873,2238.667,370.873,2246.117C370.873,2253.567,370.873,2260.133,370.873,2263.417L370.873,2266.7" id="L-H1-I1-0" class="edge-thickness-normal edge-pattern-solid flowchart-link LS-H1 LE-I1" style="fill:none;" marker-end="url(#mermaid-1780534482567_flowchart-pointEnd)"></path><path d="M589.518,2172L589.518,2176.167C589.518,2180.333,589.518,2188.667,589.518,2197C589.518,2205.333,589.518,2213.667,589.518,2222C589.518,2230.333,589.518,2238.667,589.518,2247.658C589.518,2256.65,589.518,2266.3,589.518,2271.125L589.518,2275.95" id="L-H2-I2-0" class="edge-thickness-normal edge-pattern-solid flowchart-link LS-H2 LE-I2" style="fill:none;" marker-end="url(#mermaid-1780534482567_flowchart-pointEnd)"></path><path d="M835.4,2172L835.4,2176.167C835.4,2180.333,835.4,2188.667,835.4,2197C835.4,2205.333,835.4,2213.667,835.4,2222C835.4,2230.333,835.4,2238.667,835.4,2247.658C835.4,2256.65,835.4,2266.3,835.4,2271.125L835.4,2275.95" id="L-H3-I3-0" class="edge-thickness-normal edge-pattern-solid flowchart-link LS-H3 LE-I3" style="fill:none;" marker-end="url(#mermaid-1780534482567_flowchart-pointEnd)"></path><path d="M663.924,946.5L663.924,950.667C663.924,954.833,663.924,963.167,663.924,971.5C663.924,979.833,663.924,988.167,663.924,995.617C663.924,1003.067,663.924,1009.633,663.924,1012.917L663.924,1016.2" id="L-E4-PROCESS-0" class="edge-thickness-normal edge-pattern-solid flowchart-link LS-E4 LE-PROCESS" style="fill:none;" marker-end="url(#mermaid-1780534482567_flowchart-pointEnd)"></path><path d="M663.924,1587L663.924,1591.167C663.924,1595.333,663.924,1603.667,663.924,1612C663.924,1620.333,663.924,1628.667,662.746,1636.167C661.569,1643.668,659.214,1650.335,658.037,1653.669L656.859,1657.003" id="L-PROCESS-R1-0" class="edge-thickness-normal edge-pattern-solid flowchart-link LS-PROCESS LE-R1" style="fill:none;" marker-end="url(#mermaid-1780534482567_flowchart-pointEnd)"></path></g><g class="edgeLabels"><g class="edgeLabel"><g class="label" transform="translate(0, 0)"><foreignObject width="0" height="0"><div xmlns="http://www.w3.org/1999/xhtml" style="display: inline-block; white-space: nowrap;"><span class="edgeLabel"></span></div></foreignObject></g></g><g class="edgeLabel"><g class="label" transform="translate(0, 0)"><foreignObject width="0" height="0"><div xmlns="http://www.w3.org/1999/xhtml" style="display: inline-block; white-space: nowrap;"><span class="edgeLabel"></span></div></foreignObject></g></g><g class="edgeLabel"><g class="label" transform="translate(0, 0)"><foreignObject width="0" height="0"><div xmlns="http://www.w3.org/1999/xhtml" style="display: inline-block; white-space: nowrap;"><span class="edgeLabel"></span></div></foreignObject></g></g><g class="edgeLabel"><g class="label" transform="translate(0, 0)"><foreignObject width="0" height="0"><div xmlns="http://www.w3.org/1999/xhtml" style="display: inline-block; white-space: nowrap;"><span class="edgeLabel"></span></div></foreignObject></g></g><g class="edgeLabel" transform="translate(1032.16015625, 504.25)"><g class="label" transform="translate(-14.01171875, -9.25)"><foreignObject width="28.0234375" height="18.5"><div xmlns="http://www.w3.org/1999/xhtml" style="display: inline-block; white-space: nowrap;"><span class="edgeLabel">skip</span></div></foreignObject></g></g><g class="edgeLabel" transform="translate(961.998046875, 504.25)"><g class="label" transform="translate(-33.2578125, -9.25)"><foreignObject width="66.515625" height="18.5"><div xmlns="http://www.w3.org/1999/xhtml" style="display: inline-block; white-space: nowrap;"><span class="edgeLabel">approved</span></div></foreignObject></g></g><g class="edgeLabel" transform="translate(448.451171875, 674.75)"><g class="label" transform="translate(-59.2421875, -9.25)"><foreignObject width="118.484375" height="18.5"><div xmlns="http://www.w3.org/1999/xhtml" style="display: inline-block; white-space: nowrap;"><span class="edgeLabel">yes — table data</span></div></foreignObject></g></g><g class="edgeLabel" transform="translate(673.923828125, 735)"><g class="label" transform="translate(-99.40234375, -9.25)"><foreignObject width="198.8046875" height="18.5"><div xmlns="http://www.w3.org/1999/xhtml" style="display: inline-block; white-space: nowrap;"><span class="edgeLabel">no, data in text / footnotes</span></div></foreignObject></g></g><g class="edgeLabel"><g class="label" transform="translate(0, 0)"><foreignObject width="0" height="0"><div xmlns="http://www.w3.org/1999/xhtml" style="display: inline-block; white-space: nowrap;"><span class="edgeLabel"></span></div></foreignObject></g></g><g class="edgeLabel"><g class="label" transform="translate(0, 0)"><foreignObject width="0" height="0"><div xmlns="http://www.w3.org/1999/xhtml" style="display: inline-block; white-space: nowrap;"><span class="edgeLabel"></span></div></foreignObject></g></g><g class="edgeLabel"><g class="label" transform="translate(0, 0)"><foreignObject width="0" height="0"><div xmlns="http://www.w3.org/1999/xhtml" style="display: inline-block; white-space: nowrap;"><span class="edgeLabel"></span></div></foreignObject></g></g><g class="edgeLabel"><g class="label" transform="translate(0, 0)"><foreignObject width="0" height="0"><div xmlns="http://www.w3.org/1999/xhtml" style="display: inline-block; white-space: nowrap;"><span class="edgeLabel"></span></div></foreignObject></g></g><g class="edgeLabel"><g class="label" transform="translate(0, 0)"><foreignObject width="0" height="0"><div xmlns="http://www.w3.org/1999/xhtml" style="display: inline-block; white-space: nowrap;"><span class="edgeLabel"></span></div></foreignObject></g></g><g class="edgeLabel"><g class="label" transform="translate(0, 0)"><foreignObject width="0" height="0"><div xmlns="http://www.w3.org/1999/xhtml" style="display: inline-block; white-space: nowrap;"><span class="edgeLabel"></span></div></foreignObject></g></g><g class="edgeLabel"><g class="label" transform="translate(0, 0)"><foreignObject width="0" height="0"><div xmlns="http://www.w3.org/1999/xhtml" style="display: inline-block; white-space: nowrap;"><span class="edgeLabel"></span></div></foreignObject></g></g><g class="edgeLabel"><g class="label" transform="translate(0, 0)"><foreignObject width="0" height="0"><div xmlns="http://www.w3.org/1999/xhtml" style="display: inline-block; white-space: nowrap;"><span class="edgeLabel"></span></div></foreignObject></g></g><g class="edgeLabel"><g class="label" transform="translate(0, 0)"><foreignObject width="0" height="0"><div xmlns="http://www.w3.org/1999/xhtml" style="display: inline-block; white-space: nowrap;"><span class="edgeLabel"></span></div></foreignObject></g></g><g class="edgeLabel"><g class="label" transform="translate(0, 0)"><foreignObject width="0" height="0"><div xmlns="http://www.w3.org/1999/xhtml" style="display: inline-block; white-space: nowrap;"><span class="edgeLabel"></span></div></foreignObject></g></g><g class="edgeLabel"><g class="label" transform="translate(0, 0)"><foreignObject width="0" height="0"><div xmlns="http://www.w3.org/1999/xhtml" style="display: inline-block; white-space: nowrap;"><span class="edgeLabel"></span></div></foreignObject></g></g><g class="edgeLabel"><g class="label" transform="translate(0, 0)"><foreignObject width="0" height="0"><div xmlns="http://www.w3.org/1999/xhtml" style="display: inline-block; white-space: nowrap;"><span class="edgeLabel"></span></div></foreignObject></g></g><g class="edgeLabel"><g class="label" transform="translate(0, 0)"><foreignObject width="0" height="0"><div xmlns="http://www.w3.org/1999/xhtml" style="display: inline-block; white-space: nowrap;"><span class="edgeLabel"></span></div></foreignObject></g></g><g class="edgeLabel"><g class="label" transform="translate(0, 0)"><foreignObject width="0" height="0"><div xmlns="http://www.w3.org/1999/xhtml" style="display: inline-block; white-space: nowrap;"><span class="edgeLabel"></span></div></foreignObject></g></g><g class="edgeLabel"><g class="label" transform="translate(0, 0)"><foreignObject width="0" height="0"><div xmlns="http://www.w3.org/1999/xhtml" style="display: inline-block; white-space: nowrap;"><span class="edgeLabel"></span></div></foreignObject></g></g><g class="edgeLabel"><g class="label" transform="translate(0, 0)"><foreignObject width="0" height="0"><div xmlns="http://www.w3.org/1999/xhtml" style="display: inline-block; white-space: nowrap;"><span class="edgeLabel"></span></div></foreignObject></g></g><g class="edgeLabel"><g class="label" transform="translate(0, 0)"><foreignObject width="0" height="0"><div xmlns="http://www.w3.org/1999/xhtml" style="display: inline-block; white-space: nowrap;"><span class="edgeLabel"></span></div></foreignObject></g></g><g class="edgeLabel"><g class="label" transform="translate(0, 0)"><foreignObject width="0" height="0"><div xmlns="http://www.w3.org/1999/xhtml" style="display: inline-block; white-space: nowrap;"><span class="edgeLabel"></span></div></foreignObject></g></g><g class="edgeLabel"><g class="label" transform="translate(0, 0)"><foreignObject width="0" height="0"><div xmlns="http://www.w3.org/1999/xhtml" style="display: inline-block; white-space: nowrap;"><span class="edgeLabel"></span></div></foreignObject></g></g></g><g class="nodes"><g class="node default plain flowchart-label" id="flowchart-I1-26" data-node="true" data-id="I1" transform="translate(370.873046875, 2307.25)"><rect class="basic label-container" style="" rx="0" ry="0" x="-78.49609375" y="-35.25" width="156.9921875" height="70.5"></rect><g class="label" style="" transform="translate(-70.99609375, -27.75)"><rect></rect><foreignObject width="141.9921875" height="55.5"><div xmlns="http://www.w3.org/1999/xhtml" style="display: inline-block; white-space: nowrap;"><span class="nodeLabel">Upload new records<br>to litrev schema<br>(PostgreSQL)</span></div></foreignObject></g></g><g class="node default plain flowchart-label" id="flowchart-I2-27" data-node="true" data-id="I2" transform="translate(589.517578125, 2307.25)"><rect class="basic label-container" style="" rx="0" ry="0" x="-82.8359375" y="-26" width="165.671875" height="52"></rect><g class="label" style="" transform="translate(-75.3359375, -18.5)"><rect></rect><foreignObject width="150.671875" height="37"><div xmlns="http://www.w3.org/1999/xhtml" style="display: inline-block; white-space: nowrap;"><span class="nodeLabel">Set weight = 0<br>for duplicate records</span></div></foreignObject></g></g><g class="node default plain flowchart-label" id="flowchart-I3-28" data-node="true" data-id="I3" transform="translate(835.400390625, 2307.25)"><rect class="basic label-container" style="" rx="0" ry="0" x="-75.4609375" y="-26" width="150.921875" height="52"></rect><g class="label" style="" transform="translate(-67.9609375, -18.5)"><rect></rect><foreignObject width="135.921875" height="37"><div xmlns="http://www.w3.org/1999/xhtml" style="display: inline-block; white-space: nowrap;"><span class="nodeLabel">Manual review of<br>possible duplicates</span></div></foreignObject></g></g><g class="node default default flowchart-label" id="flowchart-HC-21" data-node="true" data-id="HC" transform="translate(480.1953125, 1951.25)"><rect class="basic label-container" style="fill:#27ae60;stroke:#219a52;" rx="0" ry="0" x="-45.4609375" y="-16.75" width="90.921875" height="33.5"></rect><g class="label" style="color:#fff;" transform="translate(-37.9609375, -9.25)"><rect></rect><foreignObject width="75.921875" height="18.5"><div style="color: rgb(255, 255, 255); display: inline-block; white-space: nowrap;" xmlns="http://www.w3.org/1999/xhtml"><span class="nodeLabel" style="color:#fff;">combine.R</span></div></foreignObject></g></g><g class="node default plain flowchart-label" id="flowchart-H0-22" data-node="true" data-id="H0" transform="translate(370.873046875, 2053.25)"><rect class="basic label-container" style="" rx="0" ry="0" x="-143.4765625" y="-35.25" width="286.953125" height="70.5"></rect><g class="label" style="" transform="translate(-135.9765625, -27.75)"><rect></rect><foreignObject width="271.953125" height="55.5"><div xmlns="http://www.w3.org/1999/xhtml" style="display: inline-block; white-space: nowrap;"><span class="nodeLabel">check_records()<br>Validate each paper's records<br>Flag vocab · parsing · duplicate issues</span></div></foreignObject></g></g><g class="node default output flowchart-label" id="flowchart-H1-23" data-node="true" data-id="H1" transform="translate(370.873046875, 2155.25)"><rect class="basic label-container" style="" rx="0" ry="0" x="-61.203125" y="-16.75" width="122.40625" height="33.5"></rect><g class="label" style="" transform="translate(-53.703125, -9.25)"><rect></rect><foreignObject width="107.40625" height="18.5"><div xmlns="http://www.w3.org/1999/xhtml" style="display: inline-block; white-space: nowrap;"><span class="nodeLabel">all_records.csv</span></div></foreignObject></g></g><g class="node default output flowchart-label" id="flowchart-H2-24" data-node="true" data-id="H2" transform="translate(589.517578125, 2155.25)"><rect class="basic label-container" style="" rx="0" ry="0" x="-107.44140625" y="-16.75" width="214.8828125" height="33.5"></rect><g class="label" style="" transform="translate(-99.94140625, -9.25)"><rect></rect><foreignObject width="199.8828125" height="18.5"><div xmlns="http://www.w3.org/1999/xhtml" style="display: inline-block; white-space: nowrap;"><span class="nodeLabel">all_dupes_exact_partial.csv</span></div></foreignObject></g></g><g class="node default output flowchart-label" id="flowchart-H3-25" data-node="true" data-id="H3" transform="translate(835.400390625, 2155.25)"><rect class="basic label-container" style="" rx="0" ry="0" x="-88.44140625" y="-16.75" width="176.8828125" height="33.5"></rect><g class="label" style="" transform="translate(-80.94140625, -9.25)"><rect></rect><foreignObject width="161.8828125" height="18.5"><div xmlns="http://www.w3.org/1999/xhtml" style="display: inline-block; white-space: nowrap;"><span class="nodeLabel">all_dupes_possible.csv</span></div></foreignObject></g></g><g class="node default default flowchart-label" id="flowchart-R1-17" data-node="true" data-id="R1" transform="translate(642.64453125, 1697.25)"><rect class="basic label-container" style="fill:#27ae60;stroke:#219a52;" rx="0" ry="0" x="-133.09375" y="-35.25" width="266.1875" height="70.5"></rect><g class="label" style="color:#fff;" transform="translate(-125.59375, -27.75)"><rect></rect><foreignObject width="251.1875" height="55.5"><div style="color: rgb(255, 255, 255); display: inline-block; white-space: nowrap;" xmlns="http://www.w3.org/1999/xhtml"><span class="nodeLabel" style="color:#fff;">run_all.R<br>Runs all paper scripts sequentially<br>Logs errors and warnings per script</span></div></foreignObject></g></g><g class="node default output flowchart-label" id="flowchart-G1-18" data-node="true" data-id="G1" transform="translate(330.724609375, 1808.5)"><rect class="basic label-container" style="" rx="0" ry="0" x="-69.4765625" y="-26" width="138.953125" height="52"></rect><g class="label" style="" transform="translate(-61.9765625, -18.5)"><rect></rect><foreignObject width="123.953125" height="37"><div xmlns="http://www.w3.org/1999/xhtml" style="display: inline-block; white-space: nowrap;"><span class="nodeLabel">records CSV<br>new trait records</span></div></foreignObject></g></g><g class="node default output flowchart-label" id="flowchart-G2-19" data-node="true" data-id="G2" transform="translate(546.212890625, 1808.5)"><rect class="basic label-container" style="" rx="0" ry="0" x="-96.01171875" y="-26" width="192.0234375" height="52"></rect><g class="label" style="" transform="translate(-88.51171875, -18.5)"><rect></rect><foreignObject width="177.0234375" height="37"><div xmlns="http://www.w3.org/1999/xhtml" style="display: inline-block; white-space: nowrap;"><span class="nodeLabel">dupes_exact_partial CSV<br>clear duplicates</span></div></foreignObject></g></g><g class="node default output flowchart-label" id="flowchart-G3-20" data-node="true" data-id="G3" transform="translate(769.236328125, 1808.5)"><rect class="basic label-container" style="" rx="0" ry="0" x="-77.01171875" y="-26" width="154.0234375" height="52"></rect><g class="label" style="" transform="translate(-69.51171875, -18.5)"><rect></rect><foreignObject width="139.0234375" height="37"><div xmlns="http://www.w3.org/1999/xhtml" style="display: inline-block; white-space: nowrap;"><span class="nodeLabel">dupes_possible CSV<br>for manual review</span></div></foreignObject></g></g><g class="root" transform="translate(451.958984375, 1013.5)"><g class="clusters"><g class="cluster default flowchart-label" id="PROCESS"><rect style="fill:#eafaf1;stroke:#82e0aa;" rx="0" ry="0" x="8" y="8" width="408.9296875" height="565.5"></rect><g class="cluster-label" transform="translate(140.86328125, 8)"><foreignObject width="143.203125" height="18.5"><div style="color: rgb(26, 37, 47); display: inline-block; white-space: nowrap;" xmlns="http://www.w3.org/1999/xhtml"><span class="nodeLabel" style="color:#1a252f;">PER PAPER R SCRIPT</span></div></foreignObject></g></g></g><g class="edgePaths"><path d="M212.465,66.5L212.465,70.667C212.465,74.833,212.465,83.167,212.465,90.617C212.465,98.067,212.465,104.633,212.465,107.917L212.465,111.2" id="L-F1-F2-0" class="edge-thickness-normal edge-pattern-solid flowchart-link LS-F1 LE-F2" style="fill:none;" marker-end="url(#mermaid-1780534482567_flowchart-pointEnd)"></path><path d="M212.465,168.5L212.465,172.667C212.465,176.833,212.465,185.167,212.465,192.617C212.465,200.067,212.465,206.633,212.465,209.917L212.465,213.2" id="L-F2-F2b-0" class="edge-thickness-normal edge-pattern-solid flowchart-link LS-F2 LE-F2b" style="fill:none;" marker-end="url(#mermaid-1780534482567_flowchart-pointEnd)"></path><path d="M212.465,289L212.465,293.167C212.465,297.333,212.465,305.667,212.465,313.117C212.465,320.567,212.465,327.133,212.465,330.417L212.465,333.7" id="L-F2b-F3-0" class="edge-thickness-normal edge-pattern-solid flowchart-link LS-F2b LE-F3" style="fill:none;" marker-end="url(#mermaid-1780534482567_flowchart-pointEnd)"></path><path d="M212.465,391L212.465,395.167C212.465,399.333,212.465,407.667,212.465,415.117C212.465,422.567,212.465,429.133,212.465,432.417L212.465,435.7" id="L-F3-F4-0" class="edge-thickness-normal edge-pattern-solid flowchart-link LS-F3 LE-F4" style="fill:none;" marker-end="url(#mermaid-1780534482567_flowchart-pointEnd)"></path></g><g class="edgeLabels"><g class="edgeLabel"><g class="label" transform="translate(0, 0)"><foreignObject width="0" height="0"><div xmlns="http://www.w3.org/1999/xhtml" style="display: inline-block; white-space: nowrap;"><span class="edgeLabel"></span></div></foreignObject></g></g><g class="edgeLabel"><g class="label" transform="translate(0, 0)"><foreignObject width="0" height="0"><div xmlns="http://www.w3.org/1999/xhtml" style="display: inline-block; white-space: nowrap;"><span class="edgeLabel"></span></div></foreignObject></g></g><g class="edgeLabel"><g class="label" transform="translate(0, 0)"><foreignObject width="0" height="0"><div xmlns="http://www.w3.org/1999/xhtml" style="display: inline-block; white-space: nowrap;"><span class="edgeLabel"></span></div></foreignObject></g></g><g class="edgeLabel"><g class="label" transform="translate(0, 0)"><foreignObject width="0" height="0"><div xmlns="http://www.w3.org/1999/xhtml" style="display: inline-block; white-space: nowrap;"><span class="edgeLabel"></span></div></foreignObject></g></g></g><g class="nodes"><g class="node default plain flowchart-label" id="flowchart-F1-11" data-node="true" data-id="F1" transform="translate(212.46484375, 49.75)"><rect class="basic label-container" style="" rx="0" ry="0" x="-134.9921875" y="-16.75" width="269.984375" height="33.5"></rect><g class="label" style="" transform="translate(-127.4921875, -9.25)"><rect></rect><foreignObject width="254.984375" height="18.5"><div xmlns="http://www.w3.org/1999/xhtml" style="display: inline-block; white-space: nowrap;"><span class="nodeLabel">Read CSV + mapping.md exceptions</span></div></foreignObject></g></g><g class="node default plain flowchart-label" id="flowchart-F2-12" data-node="true" data-id="F2" transform="translate(212.46484375, 142.5)"><rect class="basic label-container" style="" rx="0" ry="0" x="-150.08203125" y="-26" width="300.1640625" height="52"></rect><g class="label" style="" transform="translate(-142.58203125, -18.5)"><rect></rect><foreignObject width="285.1640625" height="37"><div xmlns="http://www.w3.org/1999/xhtml" style="display: inline-block; white-space: nowrap;"><span class="nodeLabel">Align species names<br>to Bionet via match_bionet_taxonomy()</span></div></foreignObject></g></g><g class="node default plain flowchart-label" id="flowchart-F2b-13" data-node="true" data-id="F2b" transform="translate(212.46484375, 253.75)"><rect class="basic label-container" style="" rx="0" ry="0" x="-131.671875" y="-35.25" width="263.34375" height="70.5"></rect><g class="label" style="" transform="translate(-124.171875, -27.75)"><rect></rect><foreignObject width="248.34375" height="55.5"><div xmlns="http://www.w3.org/1999/xhtml" style="display: inline-block; white-space: nowrap;"><span class="nodeLabel">report_unmatched()<br>List species not matched to Bionet<br>(dropped from records)</span></div></foreignObject></g></g><g class="node default plain flowchart-label" id="flowchart-F3-14" data-node="true" data-id="F3" transform="translate(212.46484375, 365)"><rect class="basic label-container" style="" rx="0" ry="0" x="-169.46484375" y="-26" width="338.9296875" height="52"></rect><g class="label" style="" transform="translate(-161.96484375, -18.5)"><rect></rect><foreignObject width="323.9296875" height="37"><div xmlns="http://www.w3.org/1999/xhtml" style="display: inline-block; white-space: nowrap;"><span class="nodeLabel">Apply value mappings<br>(exceptions take priority over class mapping)</span></div></foreignObject></g></g><g class="node default plain flowchart-label" id="flowchart-F4-15" data-node="true" data-id="F4" transform="translate(212.46484375, 494.75)"><rect class="basic label-container" style="" rx="0" ry="0" x="-145.07421875" y="-53.75" width="290.1484375" height="107.5"></rect><g class="label" style="" transform="translate(-137.57421875, -46.25)"><rect></rect><foreignObject width="275.1484375" height="92.5"><div xmlns="http://www.w3.org/1999/xhtml" style="display: inline-block; white-space: nowrap;"><span class="nodeLabel"><b>Flag duplicates against<br>database.csv snapshot</b><br>(exact: source + value match<br>partial: source matches · value differs<br>possible: value matches · source: NA)</span></div></foreignObject></g></g></g></g><g class="node default default flowchart-label" id="flowchart-E1-6" data-node="true" data-id="E1" transform="translate(642.64453125, 589.5)"><polygon points="13,0 177.7578125,0 190.7578125,-26 177.7578125,-52 13,-52 0,-26" class="label-container" transform="translate(-95.37890625,26)" style="fill:#8e44ad;stroke:#7d3c98;"></polygon><g class="label" style="color:#fff;" transform="translate(-74.87890625, -18.5)"><rect></rect><foreignObject width="149.7578125" height="37"><div style="color: rgb(255, 255, 255); display: inline-block; white-space: nowrap;" xmlns="http://www.w3.org/1999/xhtml"><span class="nodeLabel" style="color:#fff;">Does approved trait<br>have data in a table?</span></div></foreignObject></g></g><g class="node default plain flowchart-label" id="flowchart-E2-7" data-node="true" data-id="E2" transform="translate(448.451171875, 735)"><rect class="basic label-container" style="" rx="0" ry="0" x="-91.0703125" y="-26" width="182.140625" height="52"></rect><g class="label" style="" transform="translate(-83.5703125, -18.5)"><rect></rect><foreignObject width="167.140625" height="37"><div xmlns="http://www.w3.org/1999/xhtml" style="display: inline-block; white-space: nowrap;"><span class="nodeLabel">Transcribe source table<br>to CSV file</span></div></foreignObject></g></g><g class="node default plain flowchart-label" id="flowchart-E3-8" data-node="true" data-id="E3" transform="translate(673.923828125, 837)"><rect class="basic label-container" style="" rx="0" ry="0" x="-143.2890625" y="-26" width="286.578125" height="52"></rect><g class="label" style="" transform="translate(-135.7890625, -18.5)"><rect></rect><foreignObject width="271.578125" height="37"><div xmlns="http://www.w3.org/1999/xhtml" style="display: inline-block; white-space: nowrap;"><span class="nodeLabel">Species-level exceptions —<br>copy exceptions listed in mapping.md</span></div></foreignObject></g></g><g class="node default plain flowchart-label" id="flowchart-E4-9" data-node="true" data-id="E4" transform="translate(663.923828125, 929.75)"><rect class="basic label-container" style="" rx="0" ry="0" x="-96.2734375" y="-16.75" width="192.546875" height="33.5"></rect><g class="label" style="" transform="translate(-88.7734375, -9.25)"><rect></rect><foreignObject width="177.546875" height="18.5"><div xmlns="http://www.w3.org/1999/xhtml" style="display: inline-block; white-space: nowrap;"><span class="nodeLabel">Write R processing script</span></div></foreignObject></g></g><g class="node default flowchart-label" id="flowchart-D1-4" data-node="true" data-id="D1" transform="translate(998.525390625, 444)"><polygon points="13,0 169.625,0 182.625,-26 169.625,-52 13,-52 0,-26" class="label-container" transform="translate(-91.3125,26)" style="fill:#3498db;stroke:#2980b9;"></polygon><g class="label" style="color:#fff;" transform="translate(-70.8125, -18.5)"><rect></rect><foreignObject width="141.625" height="37"><div style="color: rgb(255, 255, 255); display: inline-block; white-space: nowrap;" xmlns="http://www.w3.org/1999/xhtml"><span class="nodeLabel" style="color:#fff;">Set status per trait:<br>approved  /  skip</span></div></foreignObject></g></g><g class="node default default flowchart-label" id="flowchart-D2-5" data-node="true" data-id="D2" transform="translate(1032.16015625, 589.5)"><rect class="basic label-container" style="fill:#bdc3c7;stroke:#95a5a6;" rx="0" ry="0" x="-77.3359375" y="-16.75" width="154.671875" height="33.5"></rect><g class="label" style="color:#2c3e50;" transform="translate(-69.8359375, -9.25)"><rect></rect><foreignObject width="139.671875" height="18.5"><div style="color: rgb(44, 62, 80); display: inline-block; white-space: nowrap;" xmlns="http://www.w3.org/1999/xhtml"><span class="nodeLabel" style="color:#2c3e50;">Trait not translated</span></div></foreignObject></g></g><g class="node default plain flowchart-label" id="flowchart-B1-1" data-node="true" data-id="B1" transform="translate(860.125, 143.75)"><rect class="basic label-container" style="" rx="0" ry="0" x="-81.41796875" y="-26" width="162.8359375" height="52"></rect><g class="label" style="" transform="translate(-73.91796875, -18.5)"><rect></rect><foreignObject width="147.8359375" height="37"><div xmlns="http://www.w3.org/1999/xhtml" style="display: inline-block; white-space: nowrap;"><span class="nodeLabel">Paper folder<br>papers/Author Year/</span></div></foreignObject></g></g><g class="node default flowchart-label" id="flowchart-B3-2" data-node="true" data-id="B3" transform="translate(1136.92578125, 143.75)"><rect class="basic label-container" style="fill:#27ae60;stroke:#219a52;" rx="0" ry="0" x="-145.3828125" y="-35.25" width="290.765625" height="70.5"></rect><g class="label" style="color:#fff;" transform="translate(-137.8828125, -27.75)"><rect></rect><foreignObject width="275.765625" height="55.5"><div style="color: rgb(255, 255, 255); display: inline-block; white-space: nowrap;" xmlns="http://www.w3.org/1999/xhtml"><span class="nodeLabel" style="color:#fff;">update_mapping_db_counts.R<br>Check existing database record counts<br>for this source</span></div></foreignObject></g></g><g class="node default plain flowchart-label" id="flowchart-B2-3" data-node="true" data-id="B2" transform="translate(998.525390625, 273.5)"><rect class="basic label-container" style="" rx="0" ry="0" x="-192.4765625" y="-44.5" width="384.953125" height="89"></rect><g class="label" style="" transform="translate(-184.9765625, -37)"><rect></rect><foreignObject width="369.953125" height="74"><div xmlns="http://www.w3.org/1999/xhtml" style="display: inline-block; white-space: nowrap;"><span class="nodeLabel"><b>Create mapping.md</b><br>Review PDF · identify extractable traits<br>Propose value mappings · note species exceptions<br>Existing database record counts available in header</span></div></foreignObject></g></g><g class="node default output flowchart-label" id="flowchart-A1-0" data-node="true" data-id="A1" transform="translate(860.125, 16.75)"><rect class="basic label-container" style="" rx="0" ry="0" x="-80.4453125" y="-16.75" width="160.890625" height="33.5"></rect><g class="label" style="" transform="translate(-72.9453125, -9.25)"><rect></rect><foreignObject width="145.890625" height="18.5"><div xmlns="http://www.w3.org/1999/xhtml" style="display: inline-block; white-space: nowrap;"><span class="nodeLabel">Primary Source PDFs</span></div></foreignObject></g></g><g class="node default default flowchart-label" id="flowchart-E2b-10" data-node="true" data-id="E2b" transform="translate(142.61328125, 837)"><rect class="basic label-container" style="fill:#ebf5fb;stroke:#85c1e9;" rx="0" ry="0" x="-142.61328125" y="-26" width="285.2265625" height="52"></rect><g class="label" style="color:#1a252f;" transform="translate(-135.11328125, -18.5)"><rect></rect><foreignObject width="270.2265625" height="37"><div style="color: rgb(26, 37, 47); display: inline-block; white-space: nowrap;" xmlns="http://www.w3.org/1999/xhtml"><span class="nodeLabel" style="color:#1a252f;">Review CSV<br>Check and fix any transcription issues</span></div></foreignObject></g></g><g class="node default default flowchart-label" id="flowchart-L1-16" data-node="true" data-id="L1" transform="translate(236.658203125, 1304.25)"><rect class="basic label-container" style="fill:#ebf5fb;stroke:#85c1e9;" rx="0" ry="0" x="-149.15625" y="-35.25" width="298.3125" height="70.5"></rect><g class="label" style="color:#1a252f;" transform="translate(-141.65625, -27.75)"><rect></rect><foreignObject width="283.3125" height="55.5"><div style="color: rgb(26, 37, 47); display: inline-block; white-space: nowrap;" xmlns="http://www.w3.org/1999/xhtml"><span class="nodeLabel" style="color:#1a252f;">Review TRAIT_LOGIC.md<br>Sanity check interpretation consistency<br>across papers before batch execution</span></div></foreignObject></g></g></g></g></g></svg>